<svg xmlns="http://www.w3.org/2000/svg" viewBox="0 0 114.47 127.04"><defs><style>.cls-1{isolation:isolate;}.cls-2{mix-blend-mode:color-dodge;}.cls-3{opacity:0.6;}.cls-4{fill:#f7c90d;}</style></defs><title>elem_net</title><g class="cls-1"><g id="Layer_1" data-name="Layer 1"><g class="cls-2"><g class="cls-3"><line class="cls-4" x1="113.77" y1="42.62" x2="61.46" y2="5.02"/><polygon class="cls-4" points="61.51 4.86 113.81 42.46 113.72 42.78 61.41 5.18 61.51 4.86"/></g><g class="cls-3"><line class="cls-4" x1="113.77" y1="42.62" x2="61.46" y2="5.02"/><polygon class="cls-4" points="61.51 4.86 113.81 42.46 113.72 42.78 61.41 5.18 61.51 4.86"/></g><g class="cls-3"><line class="cls-4" x1="51.33" y1="126.3" x2="21.77" y2="74.23"/><polygon class="cls-4" points="21.63 74.3 21.91 74.15 51.47 126.22 51.19 126.38 21.63 74.3"/></g><g class="cls-3"><line class="cls-4" x1="51.33" y1="126.3" x2="103.02" y2="97.05"/><polygon class="cls-4" points="51.24 126.14 102.93 96.9 103.11 97.21 51.42 126.46 51.24 126.14"/></g><g class="cls-3"><line class="cls-4" x1="73.91" y1="44.11" x2="113.77" y2="42.62"/><polygon class="cls-4" points="73.82 43.95 113.68 42.46 113.86 42.78 74 44.27 73.82 43.95"/></g><g class="cls-3"><line class="cls-4" x1="73.91" y1="44.11" x2="21.77" y2="74.23"/><polygon class="cls-4" points="21.68 74.07 73.81 43.96 74 44.27 21.86 74.38 21.68 74.07"/></g><g class="cls-3"><line class="cls-4" x1="73.91" y1="44.11" x2="61.46" y2="5.02"/><polygon class="cls-4" points="61.31 5.06 61.62 4.99 74.06 44.08 73.75 44.15 61.31 5.06"/></g><g class="cls-3"><line class="cls-4" x1="73.91" y1="44.11" x2="61.46" y2="5.02"/><polygon class="cls-4" points="61.31 5.06 61.62 4.99 74.06 44.08 73.75 44.15 61.31 5.06"/></g><g class="cls-3"><line class="cls-4" x1="73.91" y1="44.11" x2="103.02" y2="97.05"/><polygon class="cls-4" points="73.77 44.18 74.05 44.04 103.16 96.98 102.88 97.13 73.77 44.18"/></g><g class="cls-3"><line class="cls-4" x1="37.35" y1="98.01" x2="51.33" y2="126.3"/><polygon class="cls-4" points="37.21 98.08 37.5 97.94 51.47 126.23 51.18 126.37 37.21 98.08"/></g><g class="cls-3"><line class="cls-4" x1="37.35" y1="98.01" x2="21.77" y2="74.23"/><rect class="cls-4" x="156.64" y="146.73" width="0.32" height="28.43" transform="translate(-189.99 38.32) rotate(-33.46)"/></g><g class="cls-3"><line class="cls-4" x1="37.35" y1="98.01" x2="103.02" y2="97.05"/><polygon class="cls-4" points="37.33 97.83 103 96.88 103.04 97.23 37.38 98.18 37.33 97.83"/></g><g class="cls-3"><line class="cls-4" x1="85.17" y1="62.08" x2="37.35" y2="98.01"/><polygon class="cls-4" points="85.07 61.93 85.28 62.23 37.46 98.16 37.25 97.86 85.07 61.93"/></g><g class="cls-3"><line class="cls-4" x1="85.17" y1="62.08" x2="73.91" y2="44.11"/><polygon class="cls-4" points="73.77 44.19 74.04 44.03 85.31 62 85.04 62.16 73.77 44.19"/></g><g class="cls-3"><line class="cls-4" x1="85.17" y1="62.08" x2="113.77" y2="42.62"/><polygon class="cls-4" points="113.63 42.51 113.91 42.73 85.31 62.19 85.03 61.97 113.63 42.51"/></g><g class="cls-3"><line class="cls-4" x1="85.17" y1="62.08" x2="21.77" y2="74.23"/><polygon class="cls-4" points="21.73 74.05 85.12 61.91 85.22 62.25 21.82 74.4 21.73 74.05"/></g><g class="cls-3"><line class="cls-4" x1="85.17" y1="62.08" x2="61.46" y2="5.02"/><polygon class="cls-4" points="61.31 5.08 61.61 4.97 85.32 62.03 85.02 62.13 61.31 5.08"/></g><g class="cls-3"><line class="cls-4" x1="85.17" y1="62.08" x2="61.46" y2="5.02"/><polygon class="cls-4" points="61.31 5.08 61.61 4.97 85.32 62.03 85.02 62.13 61.31 5.08"/></g><g class="cls-3"><line class="cls-4" x1="85.17" y1="62.08" x2="103.02" y2="97.05"/><polygon class="cls-4" points="85.03 62.15 85.32 62.01 103.16 96.98 102.87 97.12 85.03 62.15"/></g><g class="cls-3"><line class="cls-4" x1="71.41" y1="84.34" x2="85.17" y2="62.08"/><polygon class="cls-4" points="85.03 61.97 85.31 62.19 71.55 84.45 71.27 84.23 85.03 61.97"/></g><g class="cls-3"><line class="cls-4" x1="71.41" y1="84.34" x2="37.35" y2="98.01"/><polygon class="cls-4" points="37.28 97.85 71.34 84.18 71.49 84.5 37.43 98.17 37.28 97.85"/></g><g class="cls-3"><line class="cls-4" x1="71.41" y1="84.34" x2="73.91" y2="44.11"/><polygon class="cls-4" points="73.74 44.08 74.07 44.14 71.58 84.37 71.25 84.31 73.74 44.08"/></g><g class="cls-3"><line class="cls-4" x1="71.41" y1="84.34" x2="51.33" y2="126.3"/><polygon class="cls-4" points="71.26 84.25 71.56 84.43 51.48 126.39 51.18 126.21 71.26 84.25"/></g><g class="cls-3"><line class="cls-4" x1="71.41" y1="84.34" x2="21.77" y2="74.23"/><polygon class="cls-4" points="21.79 74.05 71.43 84.17 71.4 84.51 21.76 74.4 21.79 74.05"/></g><g class="cls-3"><line class="cls-4" x1="71.41" y1="84.34" x2="103.02" y2="97.05"/><polygon class="cls-4" points="71.45 84.18 103.06 96.89 102.97 97.21 71.37 84.5 71.45 84.18"/></g><g class="cls-3"><line class="cls-4" x1="46.47" y1="24.63" x2="71.41" y2="84.34"/><polygon class="cls-4" points="46.32 24.69 46.62 24.58 71.56 84.29 71.26 84.39 46.32 24.69"/></g><g class="cls-3"><line class="cls-4" x1="46.47" y1="24.63" x2="85.17" y2="62.08"/><polygon class="cls-4" points="46.58 24.51 85.28 61.96 85.07 62.2 46.37 24.76 46.58 24.51"/></g><g class="cls-3"><line class="cls-4" x1="46.47" y1="24.63" x2="73.91" y2="44.11"/><polygon class="cls-4" points="46.56 24.49 73.99 43.97 73.83 44.25 46.39 24.78 46.56 24.49"/></g><g class="cls-3"><line class="cls-4" x1="46.47" y1="24.63" x2="113.77" y2="42.62"/><polygon class="cls-4" points="46.46 24.46 113.75 42.44 113.78 42.79 46.49 24.81 46.46 24.46"/></g><g class="cls-3"><line class="cls-4" x1="46.47" y1="24.63" x2="21.77" y2="74.23"/><polygon class="cls-4" points="46.33 24.54 46.62 24.73 21.92 74.32 21.62 74.13 46.33 24.54"/></g><g class="cls-3"><line class="cls-4" x1="46.47" y1="24.63" x2="61.46" y2="5.02"/><polygon class="cls-4" points="61.33 4.9 61.6 5.14 46.61 24.75 46.34 24.52 61.33 4.9"/></g><g class="cls-3"><line class="cls-4" x1="46.47" y1="24.63" x2="61.46" y2="5.02"/><polygon class="cls-4" points="61.33 4.9 61.6 5.14 46.61 24.75 46.34 24.52 61.33 4.9"/></g><g class="cls-3"><line class="cls-4" x1="0.7" y1="55.19" x2="46.47" y2="24.63"/><polygon class="cls-4" points="46.37 24.48 46.57 24.79 0.8 55.34 0.6 55.04 46.37 24.48"/></g><g class="cls-3"><line class="cls-4" x1="0.7" y1="55.19" x2="37.35" y2="98.01"/><polygon class="cls-4" points="0.82 55.08 37.47 97.9 37.23 98.12 0.58 55.3 0.82 55.08"/></g><g class="cls-3"><line class="cls-4" x1="0.7" y1="55.19" x2="21.77" y2="74.23"/><polygon class="cls-4" points="0.8 55.06 21.87 74.1 21.67 74.35 0.6 55.32 0.8 55.06"/></g><g class="cls-3"><line class="cls-4" x1="113.07" y1="73.76" x2="71.41" y2="84.34"/><polygon class="cls-4" points="71.36 84.17 113.01 73.59 113.12 73.94 71.47 84.51 71.36 84.17"/></g><g class="cls-3"><line class="cls-4" x1="113.07" y1="73.76" x2="85.17" y2="62.08"/><polygon class="cls-4" points="85.22 61.92 113.11 73.6 113.02 73.93 85.13 62.24 85.22 61.92"/></g><g class="cls-3"><line class="cls-4" x1="113.07" y1="73.76" x2="73.91" y2="44.11"/><polygon class="cls-4" points="73.99 43.97 113.15 73.63 112.98 73.9 73.82 44.25 73.99 43.97"/></g><g class="cls-3"><line class="cls-4" x1="113.07" y1="73.76" x2="113.77" y2="42.62"/><polygon class="cls-4" points="113.6 42.62 113.93 42.62 113.23 73.77 112.9 73.76 113.6 42.62"/></g><g class="cls-3"><line class="cls-4" x1="113.07" y1="73.76" x2="103.02" y2="97.05"/><polygon class="cls-4" points="112.91 73.68 113.22 73.85 103.17 97.14 102.86 96.97 112.91 73.68"/></g><g class="cls-3"><line class="cls-4" x1="29.48" y1="1.78" x2="0.7" y2="55.19"/><polygon class="cls-4" points="29.33 1.68 29.63 1.88 0.85 55.29 0.56 55.09 29.33 1.68"/></g><g class="cls-3"><line class="cls-4" x1="29.48" y1="1.78" x2="46.47" y2="24.63"/><polygon class="cls-4" points="29.61 1.68 46.6 24.54 46.35 24.73 29.35 1.87 29.61 1.68"/></g><g class="cls-3"><line class="cls-4" x1="29.48" y1="1.78" x2="73.91" y2="44.11"/><polygon class="cls-4" points="29.58 1.65 74.01 43.99 73.8 44.23 29.38 1.9 29.58 1.65"/></g><g class="cls-3"><line class="cls-4" x1="29.48" y1="1.78" x2="61.46" y2="5.02"/><polygon class="cls-4" points="29.48 1.6 61.46 4.85 61.47 5.2 29.48 1.95 29.48 1.6"/></g><g class="cls-3"><line class="cls-4" x1="29.48" y1="1.78" x2="61.46" y2="5.02"/><polygon class="cls-4" points="29.48 1.6 61.46 4.85 61.47 5.2 29.48 1.95 29.48 1.6"/></g><g class="cls-3"><line class="cls-4" x1="29.48" y1="1.78" x2="0.7" y2="55.19"/><polygon class="cls-4" points="29.33 1.68 29.63 1.88 0.85 55.29 0.56 55.09 29.33 1.68"/></g><g class="cls-3"><line class="cls-4" x1="29.48" y1="1.78" x2="46.47" y2="24.63"/><polygon class="cls-4" points="29.61 1.68 46.6 24.54 46.35 24.73 29.35 1.87 29.61 1.68"/></g><g class="cls-3"><line class="cls-4" x1="29.48" y1="1.78" x2="73.91" y2="44.11"/><polygon class="cls-4" points="29.58 1.65 74.01 43.99 73.8 44.23 29.38 1.9 29.58 1.65"/></g><g class="cls-3"><line class="cls-4" x1="29.48" y1="1.78" x2="61.46" y2="5.02"/><polygon class="cls-4" points="29.48 1.6 61.46 4.85 61.47 5.2 29.48 1.95 29.48 1.6"/></g><g class="cls-3"><line class="cls-4" x1="29.48" y1="1.78" x2="61.46" y2="5.02"/><polygon class="cls-4" points="29.48 1.6 61.46 4.85 61.47 5.2 29.48 1.95 29.48 1.6"/></g><g class="cls-3"><line class="cls-4" x1="29.3" y1="0.74" x2="29.48" y2="1.78"/><polygon class="cls-4" points="29.14 0.75 29.47 0.73 29.64 1.77 29.32 1.79 29.14 0.75"/></g><g class="cls-3"><line class="cls-4" x1="29.3" y1="0.74" x2="29.48" y2="1.78"/><polygon class="cls-4" points="29.14 0.75 29.47 0.73 29.64 1.77 29.32 1.79 29.14 0.75"/></g><g class="cls-3"><line class="cls-4" x1="29.3" y1="0.74" x2="0.7" y2="55.19"/><polygon class="cls-4" points="29.16 0.64 29.45 0.84 0.85 55.29 0.55 55.09 29.16 0.64"/></g><g class="cls-3"><line class="cls-4" x1="29.3" y1="0.74" x2="46.47" y2="24.63"/><polygon class="cls-4" points="29.43 0.64 46.6 24.54 46.35 24.73 29.18 0.83 29.43 0.64"/></g><g class="cls-3"><line class="cls-4" x1="29.3" y1="0.74" x2="73.91" y2="44.11"/><polygon class="cls-4" points="29.41 0.62 74.01 43.99 73.8 44.23 29.2 0.86 29.41 0.62"/></g><g class="cls-3"><line class="cls-4" x1="29.3" y1="0.74" x2="61.46" y2="5.02"/><polygon class="cls-4" points="29.31 0.56 61.46 4.85 61.46 5.2 29.3 0.91 29.31 0.56"/></g><g class="cls-3"><line class="cls-4" x1="29.3" y1="0.74" x2="61.46" y2="5.02"/><polygon class="cls-4" points="29.31 0.56 61.46 4.85 61.46 5.2 29.3 0.91 29.31 0.56"/></g><g class="cls-3"><line class="cls-4" x1="17.53" y1="106.38" x2="0.7" y2="55.19"/><polygon class="cls-4" points="0.55 55.23 0.86 55.15 17.69 106.34 17.38 106.42 0.55 55.23"/></g><g class="cls-3"><line class="cls-4" x1="17.53" y1="106.38" x2="71.41" y2="84.34"/><polygon class="cls-4" points="17.46 106.22 71.34 84.18 71.49 84.5 17.61 106.55 17.46 106.22"/></g><g class="cls-3"><line class="cls-4" x1="17.53" y1="106.38" x2="37.35" y2="98.01"/><polygon class="cls-4" points="17.46 106.22 37.27 97.85 37.43 98.17 17.61 106.55 17.46 106.22"/></g><g class="cls-3"><line class="cls-4" x1="17.53" y1="106.38" x2="51.33" y2="126.3"/><polygon class="cls-4" points="17.6 106.23 51.4 126.15 51.26 126.45 17.46 106.53 17.6 106.23"/></g><g class="cls-3"><line class="cls-4" x1="17.53" y1="106.38" x2="21.77" y2="74.23"/><polygon class="cls-4" points="21.61 74.18 21.94 74.27 17.7 106.43 17.37 106.34 21.61 74.18"/></g><ellipse class="cls-4" cx="188.7" cy="79.85" rx="0.67" ry="0.76" transform="matrix(0.84, -0.55, 0.55, 0.84, -140.13, 41.69)"/><ellipse class="cls-4" cx="241" cy="117.44" rx="0.67" ry="0.77" transform="translate(-152.19 76.44) rotate(-33.23)"/><ellipse class="cls-4" cx="188.7" cy="79.85" rx="0.67" ry="0.76" transform="matrix(0.84, -0.55, 0.55, 0.84, -140.13, 41.69)"/><ellipse class="cls-4" cx="241" cy="117.44" rx="0.67" ry="0.77" transform="translate(-152.19 76.44) rotate(-33.23)"/><ellipse class="cls-4" cx="149.01" cy="149.05" rx="0.67" ry="0.77" transform="translate(-184.53 31.11) rotate(-33.2)"/><ellipse class="cls-4" cx="178.56" cy="201.13" rx="0.67" ry="0.76" transform="translate(-208.18 55.65) rotate(-33.17)"/><ellipse class="cls-4" cx="230.25" cy="171.88" rx="0.67" ry="0.77" transform="translate(-183.77 79.33) rotate(-33.2)"/><ellipse class="cls-4" cx="178.56" cy="201.13" rx="0.67" ry="0.76" transform="translate(-208.18 55.65) rotate(-33.17)"/><ellipse class="cls-4" cx="241" cy="117.44" rx="0.67" ry="0.77" transform="translate(-152.19 76.44) rotate(-33.23)"/><ellipse class="cls-4" cx="201.14" cy="118.94" rx="0.67" ry="0.76" transform="translate(-159.53 54.76) rotate(-33.21)"/><ellipse class="cls-4" cx="149.01" cy="149.05" rx="0.67" ry="0.77" transform="translate(-184.53 31.11) rotate(-33.2)"/><ellipse class="cls-4" cx="201.14" cy="118.94" rx="0.67" ry="0.76" transform="translate(-159.53 54.76) rotate(-33.21)"/><ellipse class="cls-4" cx="188.7" cy="79.85" rx="0.67" ry="0.76" transform="matrix(0.84, -0.55, 0.55, 0.84, -140.13, 41.69)"/><ellipse class="cls-4" cx="201.14" cy="118.94" rx="0.67" ry="0.76" transform="translate(-159.53 54.76) rotate(-33.21)"/><ellipse class="cls-4" cx="188.7" cy="79.85" rx="0.67" ry="0.76" transform="matrix(0.84, -0.55, 0.55, 0.84, -140.13, 41.69)"/><ellipse class="cls-4" cx="201.14" cy="118.94" rx="0.67" ry="0.76" transform="translate(-159.53 54.76) rotate(-33.21)"/><ellipse class="cls-4" cx="230.25" cy="171.88" rx="0.67" ry="0.77" transform="translate(-183.77 79.33) rotate(-33.2)"/><ellipse class="cls-4" cx="201.14" cy="118.94" rx="0.67" ry="0.76" transform="translate(-159.53 54.76) rotate(-33.21)"/><ellipse class="cls-4" cx="178.56" cy="201.13" rx="0.67" ry="0.76" transform="translate(-208.18 55.65) rotate(-33.17)"/><ellipse class="cls-4" cx="164.59" cy="172.84" rx="0.67" ry="0.76" transform="matrix(0.84, -0.55, 0.55, 0.84, -195.04, 43.64)"/><ellipse class="cls-4" cx="149.01" cy="149.05" rx="0.67" ry="0.77" transform="translate(-184.53 31.11) rotate(-33.2)"/><ellipse class="cls-4" cx="164.59" cy="172.84" rx="0.67" ry="0.76" transform="matrix(0.84, -0.55, 0.55, 0.84, -195.04, 43.64)"/><ellipse class="cls-4" cx="230.25" cy="171.88" rx="0.67" ry="0.77" transform="translate(-183.77 79.33) rotate(-33.2)"/><ellipse class="cls-4" cx="164.59" cy="172.84" rx="0.67" ry="0.76" transform="matrix(0.84, -0.55, 0.55, 0.84, -195.04, 43.64)"/><ellipse class="cls-4" cx="164.59" cy="172.84" rx="0.67" ry="0.76" transform="matrix(0.84, -0.55, 0.55, 0.84, -195.04, 43.64)"/><ellipse class="cls-4" cx="212.41" cy="136.91" rx="0.67" ry="0.76" transform="translate(-167.53 63.74) rotate(-33.18)"/><ellipse class="cls-4" cx="201.14" cy="118.94" rx="0.67" ry="0.76" transform="translate(-159.53 54.76) rotate(-33.21)"/><ellipse class="cls-4" cx="212.41" cy="136.91" rx="0.67" ry="0.76" transform="translate(-167.53 63.74) rotate(-33.18)"/><ellipse class="cls-4" cx="241" cy="117.44" rx="0.67" ry="0.77" transform="translate(-152.19 76.44) rotate(-33.23)"/><ellipse class="cls-4" cx="212.41" cy="136.91" rx="0.67" ry="0.76" transform="translate(-167.53 63.74) rotate(-33.18)"/><ellipse class="cls-4" cx="149.01" cy="149.05" rx="0.67" ry="0.77" transform="translate(-184.53 31.11) rotate(-33.2)"/><ellipse class="cls-4" cx="212.41" cy="136.91" rx="0.67" ry="0.76" transform="translate(-167.53 63.74) rotate(-33.18)"/><ellipse class="cls-4" cx="188.7" cy="79.85" rx="0.67" ry="0.76" transform="matrix(0.84, -0.55, 0.55, 0.84, -140.13, 41.69)"/><ellipse class="cls-4" cx="212.41" cy="136.91" rx="0.67" ry="0.76" transform="translate(-167.53 63.74) rotate(-33.18)"/><ellipse class="cls-4" cx="188.7" cy="79.85" rx="0.67" ry="0.76" transform="matrix(0.84, -0.55, 0.55, 0.84, -140.13, 41.69)"/><ellipse class="cls-4" cx="212.41" cy="136.91" rx="0.67" ry="0.76" transform="translate(-167.53 63.74) rotate(-33.18)"/><ellipse class="cls-4" cx="230.25" cy="171.88" rx="0.67" ry="0.77" transform="translate(-183.77 79.33) rotate(-33.2)"/><ellipse class="cls-4" cx="212.41" cy="136.91" rx="0.67" ry="0.76" transform="translate(-167.53 63.74) rotate(-33.18)"/><ellipse class="cls-4" cx="212.41" cy="136.91" rx="0.67" ry="0.76" transform="translate(-167.53 63.74) rotate(-33.18)"/><ellipse class="cls-4" cx="198.65" cy="159.17" rx="0.67" ry="0.77" transform="translate(-181.97 60.04) rotate(-33.23)"/><ellipse class="cls-4" cx="164.59" cy="172.84" rx="0.67" ry="0.76" transform="matrix(0.84, -0.55, 0.55, 0.84, -195.04, 43.64)"/><ellipse class="cls-4" cx="198.65" cy="159.17" rx="0.67" ry="0.77" transform="translate(-181.97 60.04) rotate(-33.23)"/><ellipse class="cls-4" cx="201.14" cy="118.94" rx="0.67" ry="0.76" transform="translate(-159.53 54.76) rotate(-33.21)"/><ellipse class="cls-4" cx="198.65" cy="159.17" rx="0.67" ry="0.77" transform="translate(-181.97 60.04) rotate(-33.23)"/><ellipse class="cls-4" cx="178.56" cy="201.13" rx="0.67" ry="0.76" transform="translate(-208.18 55.65) rotate(-33.17)"/><ellipse class="cls-4" cx="198.65" cy="159.17" rx="0.67" ry="0.77" transform="translate(-181.97 60.04) rotate(-33.23)"/><ellipse class="cls-4" cx="149.01" cy="149.05" rx="0.67" ry="0.77" transform="translate(-184.53 31.11) rotate(-33.2)"/><ellipse class="cls-4" cx="198.65" cy="159.17" rx="0.67" ry="0.77" transform="translate(-181.97 60.04) rotate(-33.23)"/><ellipse class="cls-4" cx="230.25" cy="171.88" rx="0.67" ry="0.77" transform="translate(-183.77 79.33) rotate(-33.2)"/><ellipse class="cls-4" cx="198.65" cy="159.17" rx="0.67" ry="0.77" transform="translate(-181.97 60.04) rotate(-33.23)"/><ellipse class="cls-4" cx="198.65" cy="159.17" rx="0.67" ry="0.77" transform="translate(-181.97 60.04) rotate(-33.23)"/><ellipse class="cls-4" cx="173.71" cy="99.46" rx="0.67" ry="0.77" transform="translate(-153.34 36.54) rotate(-33.2)"/><ellipse class="cls-4" cx="212.41" cy="136.91" rx="0.67" ry="0.76" transform="translate(-167.53 63.74) rotate(-33.18)"/><ellipse class="cls-4" cx="173.71" cy="99.46" rx="0.67" ry="0.77" transform="translate(-153.34 36.54) rotate(-33.2)"/><ellipse class="cls-4" cx="201.14" cy="118.94" rx="0.67" ry="0.76" transform="translate(-159.53 54.76) rotate(-33.21)"/><ellipse class="cls-4" cx="173.71" cy="99.46" rx="0.67" ry="0.77" transform="translate(-153.34 36.54) rotate(-33.2)"/><ellipse class="cls-4" cx="241" cy="117.44" rx="0.67" ry="0.77" transform="translate(-152.19 76.44) rotate(-33.23)"/><ellipse class="cls-4" cx="173.71" cy="99.46" rx="0.67" ry="0.77" transform="translate(-153.34 36.54) rotate(-33.2)"/><ellipse class="cls-4" cx="149.01" cy="149.05" rx="0.67" ry="0.77" transform="translate(-184.53 31.11) rotate(-33.2)"/><ellipse class="cls-4" cx="173.71" cy="99.46" rx="0.67" ry="0.77" transform="translate(-153.34 36.54) rotate(-33.2)"/><ellipse class="cls-4" cx="188.7" cy="79.85" rx="0.67" ry="0.76" transform="matrix(0.84, -0.55, 0.55, 0.84, -140.13, 41.69)"/><ellipse class="cls-4" cx="173.71" cy="99.46" rx="0.67" ry="0.77" transform="translate(-153.34 36.54) rotate(-33.2)"/><ellipse class="cls-4" cx="188.7" cy="79.85" rx="0.67" ry="0.76" transform="matrix(0.84, -0.55, 0.55, 0.84, -140.13, 41.69)"/><ellipse class="cls-4" cx="173.71" cy="99.46" rx="0.67" ry="0.77" transform="translate(-153.34 36.54) rotate(-33.2)"/><ellipse class="cls-4" cx="173.71" cy="99.46" rx="0.67" ry="0.77" transform="translate(-153.34 36.54) rotate(-33.2)"/><ellipse class="cls-4" cx="127.94" cy="130.02" rx="0.67" ry="0.77" transform="translate(-177.57 16.58) rotate(-33.24)"/><ellipse class="cls-4" cx="164.59" cy="172.84" rx="0.67" ry="0.76" transform="matrix(0.84, -0.55, 0.55, 0.84, -195.04, 43.64)"/><ellipse class="cls-4" cx="127.94" cy="130.02" rx="0.67" ry="0.77" transform="translate(-177.57 16.58) rotate(-33.24)"/><ellipse class="cls-4" cx="149.01" cy="149.05" rx="0.67" ry="0.77" transform="translate(-184.53 31.11) rotate(-33.2)"/><ellipse class="cls-4" cx="127.94" cy="130.02" rx="0.67" ry="0.77" transform="translate(-177.57 16.58) rotate(-33.24)"/><ellipse class="cls-4" cx="198.65" cy="159.17" rx="0.67" ry="0.77" transform="translate(-181.97 60.04) rotate(-33.23)"/><ellipse class="cls-4" cx="240.3" cy="148.59" rx="0.67" ry="0.76" transform="translate(-169.37 81.21) rotate(-33.24)"/><ellipse class="cls-4" cx="212.41" cy="136.91" rx="0.67" ry="0.76" transform="translate(-167.53 63.74) rotate(-33.18)"/><ellipse class="cls-4" cx="240.3" cy="148.59" rx="0.67" ry="0.76" transform="translate(-169.37 81.21) rotate(-33.24)"/><ellipse class="cls-4" cx="201.14" cy="118.94" rx="0.67" ry="0.76" transform="translate(-159.53 54.76) rotate(-33.21)"/><ellipse class="cls-4" cx="240.3" cy="148.59" rx="0.67" ry="0.76" transform="translate(-169.37 81.21) rotate(-33.24)"/><ellipse class="cls-4" cx="241" cy="117.44" rx="0.67" ry="0.77" transform="translate(-152.19 76.44) rotate(-33.23)"/><ellipse class="cls-4" cx="240.3" cy="148.59" rx="0.67" ry="0.76" transform="translate(-169.37 81.21) rotate(-33.24)"/><ellipse class="cls-4" cx="230.25" cy="171.88" rx="0.67" ry="0.77" transform="translate(-183.77 79.33) rotate(-33.2)"/><ellipse class="cls-4" cx="240.3" cy="148.59" rx="0.67" ry="0.76" transform="translate(-169.37 81.21) rotate(-33.24)"/><ellipse class="cls-4" cx="127.94" cy="130.02" rx="0.67" ry="0.77" transform="translate(-177.57 16.58) rotate(-33.24)"/><ellipse class="cls-4" cx="156.71" cy="76.6" rx="0.67" ry="0.76" transform="translate(-143.62 23.3) rotate(-33.14)"/><ellipse class="cls-4" cx="173.71" cy="99.46" rx="0.67" ry="0.77" transform="translate(-153.34 36.54) rotate(-33.2)"/><ellipse class="cls-4" cx="156.71" cy="76.6" rx="0.67" ry="0.76" transform="translate(-143.62 23.3) rotate(-33.14)"/><ellipse class="cls-4" cx="201.14" cy="118.94" rx="0.67" ry="0.76" transform="translate(-159.53 54.76) rotate(-33.21)"/><ellipse class="cls-4" cx="156.71" cy="76.6" rx="0.67" ry="0.76" transform="translate(-143.62 23.3) rotate(-33.14)"/><ellipse class="cls-4" cx="188.7" cy="79.85" rx="0.67" ry="0.76" transform="matrix(0.84, -0.55, 0.55, 0.84, -140.13, 41.69)"/><ellipse class="cls-4" cx="156.71" cy="76.6" rx="0.67" ry="0.76" transform="translate(-143.62 23.3) rotate(-33.14)"/><ellipse class="cls-4" cx="188.7" cy="79.85" rx="0.67" ry="0.76" transform="matrix(0.84, -0.55, 0.55, 0.84, -140.13, 41.69)"/><ellipse class="cls-4" cx="156.71" cy="76.6" rx="0.67" ry="0.76" transform="translate(-143.62 23.3) rotate(-33.14)"/><ellipse class="cls-4" cx="127.94" cy="130.02" rx="0.67" ry="0.77" transform="translate(-177.57 16.58) rotate(-33.24)"/><ellipse class="cls-4" cx="156.71" cy="76.6" rx="0.67" ry="0.76" transform="translate(-143.62 23.3) rotate(-33.14)"/><ellipse class="cls-4" cx="173.71" cy="99.46" rx="0.67" ry="0.77" transform="translate(-153.34 36.54) rotate(-33.2)"/><ellipse class="cls-4" cx="156.71" cy="76.6" rx="0.67" ry="0.76" transform="translate(-143.62 23.3) rotate(-33.14)"/><ellipse class="cls-4" cx="201.14" cy="118.94" rx="0.67" ry="0.76" transform="translate(-159.53 54.76) rotate(-33.21)"/><ellipse class="cls-4" cx="156.71" cy="76.6" rx="0.67" ry="0.76" transform="translate(-143.62 23.3) rotate(-33.14)"/><ellipse class="cls-4" cx="188.7" cy="79.85" rx="0.67" ry="0.76" transform="matrix(0.84, -0.55, 0.55, 0.84, -140.13, 41.69)"/><ellipse class="cls-4" cx="156.71" cy="76.6" rx="0.67" ry="0.76" transform="translate(-143.62 23.3) rotate(-33.14)"/><ellipse class="cls-4" cx="188.7" cy="79.85" rx="0.67" ry="0.76" transform="matrix(0.84, -0.55, 0.55, 0.84, -140.13, 41.69)"/><ellipse class="cls-4" cx="156.71" cy="76.6" rx="0.67" ry="0.76" transform="translate(-143.62 23.3) rotate(-33.14)"/><ellipse class="cls-4" cx="156.71" cy="76.6" rx="0.67" ry="0.76" transform="translate(-143.62 23.3) rotate(-33.14)"/><ellipse class="cls-4" cx="156.54" cy="75.57" rx="0.67" ry="0.77" transform="translate(-143.06 23.24) rotate(-33.2)"/><ellipse class="cls-4" cx="156.71" cy="76.6" rx="0.67" ry="0.76" transform="translate(-143.62 23.3) rotate(-33.14)"/><ellipse class="cls-4" cx="156.54" cy="75.57" rx="0.67" ry="0.77" transform="translate(-143.06 23.24) rotate(-33.2)"/><ellipse class="cls-4" cx="127.94" cy="130.02" rx="0.67" ry="0.77" transform="translate(-177.57 16.58) rotate(-33.24)"/><ellipse class="cls-4" cx="156.54" cy="75.57" rx="0.67" ry="0.77" transform="translate(-143.06 23.24) rotate(-33.2)"/><ellipse class="cls-4" cx="173.71" cy="99.46" rx="0.67" ry="0.77" transform="translate(-153.34 36.54) rotate(-33.2)"/><ellipse class="cls-4" cx="156.54" cy="75.57" rx="0.67" ry="0.77" transform="translate(-143.06 23.24) rotate(-33.2)"/><ellipse class="cls-4" cx="201.14" cy="118.94" rx="0.67" ry="0.76" transform="translate(-159.53 54.76) rotate(-33.21)"/><ellipse class="cls-4" cx="156.54" cy="75.57" rx="0.67" ry="0.77" transform="translate(-143.06 23.24) rotate(-33.2)"/><ellipse class="cls-4" cx="188.7" cy="79.85" rx="0.67" ry="0.76" transform="matrix(0.84, -0.55, 0.55, 0.84, -140.13, 41.69)"/><ellipse class="cls-4" cx="156.54" cy="75.57" rx="0.67" ry="0.77" transform="translate(-143.06 23.24) rotate(-33.2)"/><ellipse class="cls-4" cx="188.7" cy="79.85" rx="0.67" ry="0.76" transform="matrix(0.84, -0.55, 0.55, 0.84, -140.13, 41.69)"/><ellipse class="cls-4" cx="156.54" cy="75.57" rx="0.67" ry="0.77" transform="translate(-143.06 23.24) rotate(-33.2)"/><ellipse class="cls-4" cx="127.94" cy="130.02" rx="0.67" ry="0.77" transform="translate(-177.57 16.58) rotate(-33.24)"/><ellipse class="cls-4" cx="144.77" cy="181.21" rx="0.67" ry="0.76" transform="translate(-202.88 34.18) rotate(-33.24)"/><ellipse class="cls-4" cx="198.65" cy="159.17" rx="0.67" ry="0.77" transform="translate(-181.97 60.04) rotate(-33.23)"/><ellipse class="cls-4" cx="144.77" cy="181.21" rx="0.67" ry="0.76" transform="translate(-202.88 34.18) rotate(-33.24)"/><ellipse class="cls-4" cx="164.59" cy="172.84" rx="0.67" ry="0.76" transform="matrix(0.84, -0.55, 0.55, 0.84, -195.04, 43.64)"/><ellipse class="cls-4" cx="144.77" cy="181.21" rx="0.67" ry="0.76" transform="translate(-202.88 34.18) rotate(-33.24)"/><ellipse class="cls-4" cx="178.56" cy="201.13" rx="0.67" ry="0.76" transform="translate(-208.18 55.65) rotate(-33.17)"/><ellipse class="cls-4" cx="144.77" cy="181.21" rx="0.67" ry="0.76" transform="translate(-202.88 34.18) rotate(-33.24)"/><ellipse class="cls-4" cx="149.01" cy="149.05" rx="0.67" ry="0.77" transform="translate(-184.53 31.11) rotate(-33.2)"/><ellipse class="cls-4" cx="144.77" cy="181.21" rx="0.67" ry="0.76" transform="translate(-202.88 34.18) rotate(-33.24)"/></g></g></g></svg>