<svg xmlns="http://www.w3.org/2000/svg" viewBox="0 0 112.59 112.5"><defs><style>.cls-1{isolation:isolate;}.cls-2{opacity:0.2;}.cls-3{opacity:0.4;mix-blend-mode:screen;}.cls-4{fill:#58e5f9;}</style></defs><title>elem2</title><g class="cls-1"><g id="Layer_1" data-name="Layer 1"><g class="cls-2"><g class="cls-3"><path class="cls-4" d="M85.5,84.7l-0.08,0a2.83,2.83,0,0,0-.35.16l-0.36.3s0,0,0,0A0.82,0.82,0,0,0,85.32,85C85.59,84.78,85.56,84.71,85.5,84.7Z" transform="translate(-56.71 -78.21)"/><path class="cls-4" d="M84.73,84.4a0,0,0,0,0,0,0l-0.29.13a0.09,0.09,0,0,0-.06.07,0.33,0.33,0,0,0,.17-0.06A1.21,1.21,0,0,0,84.73,84.4Z" transform="translate(-56.71 -78.21)"/><path class="cls-4" d="M86.13,83.77a1.13,1.13,0,0,0,.28-0.09l0.34-.16L87,83.37H87a14,14,0,0,0-1.63.72l0.43-.17A2.4,2.4,0,0,1,86.13,83.77Z" transform="translate(-56.71 -78.21)"/><path class="cls-4" d="M85.23,84.28h0a1.6,1.6,0,0,1,.34-0.16L85.9,84l0,0H85.88a6.33,6.33,0,0,0-1.77.89,8.4,8.4,0,0,0,1.12-.51A0.11,0.11,0,0,1,85.23,84.28Z" transform="translate(-56.71 -78.21)"/><path class="cls-4" d="M86.17,84.19l0.06,0,0.09-.09,0.17-.15a0.08,0.08,0,0,0,0,0h0a2.16,2.16,0,0,0-.53.33h0s0,0-.05.13A3,3,0,0,0,86.17,84.19Z" transform="translate(-56.71 -78.21)"/><path class="cls-4" d="M83.85,85.9H83.79L83.64,86a2.67,2.67,0,0,0-.49.33h0A2.81,2.81,0,0,0,83.78,86C83.84,86,83.9,85.91,83.85,85.9Z" transform="translate(-56.71 -78.21)"/><path class="cls-4" d="M84.27,86.85a0.2,0.2,0,0,0-.17,0H84l-0.6.12a3.76,3.76,0,0,0-1.16.59v0a0.61,0.61,0,0,1,.2,0c0.1,0.07.07,0.11,0,.14a5.44,5.44,0,0,1-.71.53,0.14,0.14,0,0,1-.1,0A1,1,0,0,1,81.87,88a1.62,1.62,0,0,0-.65.42,0.08,0.08,0,0,0,0,.05c0,0.11.09,0.22,0.12,0.34a0.55,0.55,0,0,1,0,.14,1.72,1.72,0,0,0,0,.25,0.09,0.09,0,0,0,0,0,4.09,4.09,0,0,0,1.86-1c0.08-.08.32-0.55,0.16-0.54a2.46,2.46,0,0,0-.48.13c0.32-.21.67-0.36,1-0.57C83.87,87.22,84.27,86.88,84.27,86.85Z" transform="translate(-56.71 -78.21)"/><path class="cls-4" d="M80.41,86.8c0.59-.26,1.08-0.68,1.65-1a4.59,4.59,0,0,0-.61.4l2-1.12A0.48,0.48,0,0,0,83.57,85H83.5a36.58,36.58,0,0,0-3.79,2.17,2.43,2.43,0,0,0,.73-0.4Z" transform="translate(-56.71 -78.21)"/><path class="cls-4" d="M80.41,90.94h0a0.47,0.47,0,0,0-.13.08,8.6,8.6,0,0,1-.72.64,1.92,1.92,0,0,0-.62.44h0l0.18,0a0.28,0.28,0,0,1,.23,0,0.64,0.64,0,0,0,.13.17,1.05,1.05,0,0,0,.28,0,2.24,2.24,0,0,0,1.13-.48,0.86,0.86,0,0,0-.13-0.52A0.66,0.66,0,0,0,80.41,90.94Z" transform="translate(-56.71 -78.21)"/><path class="cls-4" d="M81.53,87.58l-0.14,0a1.64,1.64,0,0,0-.75.42h0a0.33,0.33,0,0,1,.13,0,0.13,0.13,0,0,1,0,.12c0,0.05-.09.19,0,0.17a3.43,3.43,0,0,0,.62-0.46C81.57,87.66,81.62,87.58,81.53,87.58Z" transform="translate(-56.71 -78.21)"/><path class="cls-4" d="M100.52,79.85a3.14,3.14,0,0,1-1.43.66,19.57,19.57,0,0,0-2.13.71c-0.56.75,0.85,1,.86,1,3.49-.26,3.53-0.22,3.78,0,0,0,1.64,1.82,1.11,2.8a0.83,0.83,0,0,0-.2.47,2.07,2.07,0,0,0,.36.4,6.09,6.09,0,0,0,.15.85c0.46-.11.83-0.59,1.38-0.34a0.8,0.8,0,0,1,.5,1.18c-0.38.45-1.08,0.43-1.43,0.95a2.24,2.24,0,0,0-.23,1.51c0.07,0.21,2.79,4.83,4.09,5.27-0.66-9.59-1.14-13.95-1.8-16,0.59,1.82,1.08,5.4,1.8,16,3.26,0.63,3.33.55,3.54,0.31a17.65,17.65,0,0,0,.94-3.4,3.61,3.61,0,0,1,.1-1.33c0.13-.22.15-0.23,1-0.47,2.57-.78,2.57-0.78,2.64-1.27a1,1,0,0,1,.57-1c1.12-.57,2.41-0.65,3.53-1.23A11.25,11.25,0,0,0,121,86.2s0.22-.16,0-0.5c-0.38-.49-1-0.78-1.33-1.29a5.78,5.78,0,0,1-.39-1.08,0.52,0.52,0,0,1,.13-0.75c0.32-.32.1-0.45-0.56-0.84-2.13-1.26-2.15-1.29-2.33-1.57l0-.09,0.11,0c-0.62-.61-1.89-0.13-2.19-1.29l-0.21-.1a1.59,1.59,0,0,1,0-.18l0.09,0c-0.28,0-1.09-.09-1.1-0.09a6.67,6.67,0,0,0-1.35.11,5.9,5.9,0,0,1-1.31-.24c-0.63,0-2,0-2.57,0a2.28,2.28,0,0,0-1.14.14h0a8.64,8.64,0,0,0-1.64.16h0s0,0,0,0h0a3.79,3.79,0,0,1,.84.1h-0.78a5.57,5.57,0,0,0-.76,0,16.46,16.46,0,0,0-4.49,1.14A0.77,0.77,0,0,0,100.52,79.85Z" transform="translate(-56.71 -78.21)"/><path class="cls-4" d="M90.68,90.85c0.13-.35.07-0.51-0.17-0.48a1.62,1.62,0,0,0-.89.53,1.07,1.07,0,0,0,.36.76C90.28,91.86,90.68,90.86,90.68,90.85Z" transform="translate(-56.71 -78.21)"/><path class="cls-4" d="M96,80.34l-0.5.19c0.53-.13,2.26-0.6,2.54-0.68a28.05,28.05,0,0,1-3,.89,0.77,0.77,0,0,0-.38.17,1.06,1.06,0,0,1-.26.55,4,4,0,0,0-1.9.66,2.62,2.62,0,0,1,.37.1l0,0.06A3,3,0,0,0,93.57,82c-1,.54-1.1.41-1.17,0.32-0.75,0-.79.3-0.81,0.44a7.4,7.4,0,0,0-1.35.68l0,0.05a3.88,3.88,0,0,0,1-.14A4,4,0,0,1,93,83a0.36,0.36,0,0,1-.18.21c0.42,0.08,1.76-.57,1.64-0.9l-0.15,0a5,5,0,0,1,1.19-.75,2.43,2.43,0,0,0,1.63-.84l-0.06,0A7.26,7.26,0,0,0,99,80a0.82,0.82,0,0,0-.28,0l2.64-.82c-0.65.09-.69,0.1-0.93,0.11,0.62-.17,1.26-0.26,1.88-0.42-0.6,0-1.61.13-1.61,0.13s-2.44.41-3,.61a0.26,0.26,0,0,0,.1.08,0.87,0.87,0,0,1-.44,0,8.62,8.62,0,0,0-2.46.74A1.63,1.63,0,0,0,96,80.34Z" transform="translate(-56.71 -78.21)"/><path class="cls-4" d="M86.27,84.52c0,0.07-.08.15-0.13,0.21a1.83,1.83,0,0,1-.34.29l0.09-.21a0.34,0.34,0,0,0,0-.1,0.64,0.64,0,0,0-.45.24h0.07a0.09,0.09,0,0,1,0,0,5,5,0,0,1-.86.4,1.06,1.06,0,0,1,.13,0,0.12,0.12,0,0,0,0,.09,2.55,2.55,0,0,0,.85-0.25,3.46,3.46,0,0,0-1,.68h0s0.91-.33,1-0.4A4.08,4.08,0,0,0,86.26,85a0.09,0.09,0,0,1,0,.08h0c0.23-.22.23-0.22,0.85-0.73a0.59,0.59,0,0,0,.16-0.15,0.14,0.14,0,0,0-.09,0s-0.8.24-.88,0.28Z" transform="translate(-56.71 -78.21)"/><path class="cls-4" d="M95,90.91a3.09,3.09,0,0,1,1.2,1,0.9,0.9,0,0,0,.58.48c0.51-.1,1.28-2.06,1.29-2.08a0.63,0.63,0,0,0,0-.21l-3.75-.85a5,5,0,0,1,1.11-.56,0.87,0.87,0,0,0,.58-0.37,4.33,4.33,0,0,0-2-1.62,2.78,2.78,0,0,1-.86-0.09C92.91,86.48,92.95,86,92.55,86a5.94,5.94,0,0,0-1.74.49,1.74,1.74,0,0,1-.68.21,3.06,3.06,0,0,1-.11-1,3.59,3.59,0,0,0-1.2.07c-1.13.27-4.5,3.09-3.87,3.52s2.79,0,3.08-.15c0-.18-0.07-0.3.87-0.4a1.07,1.07,0,0,0,1-.41,6.74,6.74,0,0,1,.71.55c0.28,0.29.39,0.69,0.65,1s1.07,0.35,1.08,1.06c0,0-.16,1.61-2.38,2.27a10.2,10.2,0,0,0-2,.5,0.58,0.58,0,0,0-.21.69c0.12,0.11.51,0.16,1.68-.24,0.89-.3.89-0.3,2.48,0.4a1.54,1.54,0,0,1-.77.38c0.35,0.31,3.06.87,3.62,0.57,0-.08,0-0.08-0.16-0.15a11.91,11.91,0,0,1-1.28-1.16,3.13,3.13,0,0,1,1.77.58,0.37,0.37,0,0,0,.23.11,1.59,1.59,0,0,0,.56-1.48c-0.53-.55-1.51-0.48-1.81-1.33C93.8,91.29,95,90.91,95,90.91Z" transform="translate(-56.71 -78.21)"/><path class="cls-4" d="M82.75,85.56a1,1,0,0,0,.41-0.18l0.1-.07h0A2.6,2.6,0,0,0,82.75,85.56Z" transform="translate(-56.71 -78.21)"/><path class="cls-4" d="M103.51,87.68l0.57-.11a0.38,0.38,0,0,0,.19-0.17,0.16,0.16,0,0,0,0-.15A1.87,1.87,0,0,0,104,87a0.18,0.18,0,0,1,0-.12,0,0,0,0,0,0,0,0.44,0.44,0,0,0-.28,0c-0.26.06-1,.48-0.59,0.73A0.58,0.58,0,0,0,103.51,87.68Z" transform="translate(-56.71 -78.21)"/><path class="cls-4" d="M92.27,85.7h0a2.59,2.59,0,0,0-1.45-.24c-0.52.09-.36,0.43-0.23,0.53C91,86.3,92.26,85.7,92.27,85.7Z" transform="translate(-56.71 -78.21)"/><path class="cls-4" d="M88.24,83a3.63,3.63,0,0,0-.49.22l0.07,0a1.43,1.43,0,0,1,.51-0.06c0,0.09-.15.09-0.17,0.18a1.56,1.56,0,0,0,.5-0.15,2.46,2.46,0,0,0,.66-0.61,0.55,0.55,0,0,0-.18,0,1.46,1.46,0,0,1,.27-0.19h0a8.37,8.37,0,0,0-1.12.47,1.37,1.37,0,0,0,.29,0S88.48,82.92,88.24,83Z" transform="translate(-56.71 -78.21)"/><path class="cls-4" d="M86.07,85.4c-0.11.08-.15,0.1,0,0.21a0.86,0.86,0,0,0,.81-0.26c0.18-.15.54-0.53,0.38-0.54H87.21A8,8,0,0,0,86.07,85.4Z" transform="translate(-56.71 -78.21)"/><path class="cls-4" d="M91,82.71H90.91l-0.69.23c-0.27.08-.54,0.13-0.81,0.22a2.21,2.21,0,0,0-.35.13,7.47,7.47,0,0,0,1.27-.23,1.58,1.58,0,0,0,.59-0.3Z" transform="translate(-56.71 -78.21)"/><path class="cls-4" d="M89.06,83.11h0c0.09,0,.88-0.34,1.11-0.45s0.12-.07.12-0.11a0.94,0.94,0,0,0-.08-0.08,0.11,0.11,0,0,0,0-.07h0l0,0a0.15,0.15,0,0,0-.11,0L90,82.46a2.44,2.44,0,0,1-.5.4A0.54,0.54,0,0,0,89.06,83.11Z" transform="translate(-56.71 -78.21)"/><path class="cls-4" d="M90.92,81.91a3,3,0,0,0,.58-0.3H91.44s-0.57.18-.73,0.26S90.58,82,90.58,82A0.77,0.77,0,0,0,90.92,81.91Z" transform="translate(-56.71 -78.21)"/><path class="cls-4" d="M92.14,81.65a0.62,0.62,0,0,1,.4-0.06v0a1.83,1.83,0,0,1-.39.15,5.71,5.71,0,0,0-.86.31c-0.15.09-.16,0.26-0.1,0.29a1.5,1.5,0,0,0,.44-0.11c0.16,0,.34,0,0.51-0.07,0.4-.15.75-0.41,1.14-0.58s0.51-.14.75-0.26l0.05,0-0.19-.05v0L94,81.18a0.51,0.51,0,0,0,.34-0.2,0.22,0.22,0,0,1-.11,0,0.27,0.27,0,0,0,.15-0.22c0.07-.08.19-0.11,0.25-0.2H94.55a18.41,18.41,0,0,0-2,.74,0.68,0.68,0,0,0,.22,0,1.65,1.65,0,0,1-.54.19,1.34,1.34,0,0,0-.67.36A3,3,0,0,0,92.14,81.65Z" transform="translate(-56.71 -78.21)"/><path class="cls-4" d="M87.48,85.42s4.13-.42,5.21-1.49c0.29-.29-0.43-0.33-0.44-0.33a15.65,15.65,0,0,0-2.59.78c-0.34.14-.61-0.18-0.53-0.26A0.45,0.45,0,0,1,89.34,84c0.66-.19.33-0.4,0.26-0.4a2.74,2.74,0,0,0-.49.11c-0.19,0-.38,0-0.57,0a3.31,3.31,0,0,0-.37.06,1.25,1.25,0,0,0-.42.46A0.62,0.62,0,0,0,88,84.17a1.24,1.24,0,0,1,.49-0.12,0.82,0.82,0,0,1-.24.5,7.73,7.73,0,0,0-.66.46C87.22,85.43,87.37,85.42,87.48,85.42Z" transform="translate(-56.71 -78.21)"/><path class="cls-4" d="M169.3,135.92c-0.09-1.63-.17-3.8-0.34-5.42l-0.2-1.35a40.67,40.67,0,0,1-1.19-6.05l0,0.06c-1.87-6.2-1.87-6.2-1.9-6.5l0,0a36.28,36.28,0,0,0-1.85-4.54l-2-3.91a7.9,7.9,0,0,0-2.13-2,7.38,7.38,0,0,1,2.13,2c-0.77-1.26-1.76-3-2.58-4.18-3.51-4.79-3.58-4.88-5.75-7.22l-2.32-2.35h0L151,94.24a13.59,13.59,0,0,0,1.1,1.19,5.88,5.88,0,0,1-.49-0.35,5.71,5.71,0,0,0,1.14,1.16l-0.09.06c-1.62-1.32-3-2.91-4.64-4.21a22.79,22.79,0,0,0,2.35,1.67A23.35,23.35,0,0,0,146,90.23a8.5,8.5,0,0,1-1.43-.94l0.22,0.09a3.62,3.62,0,0,0-.53-0.36l-0.09.07a5.41,5.41,0,0,1-1.09-.65l0.23,0.08a5.59,5.59,0,0,0-1.68-1A1.18,1.18,0,0,0,142,88c-0.5-.17-0.75-0.7-1.25-0.88,0.09,0.23.34,0.33,0.44,0.56a0.84,0.84,0,0,0-.15.64,20,20,0,0,0,1.21,2.42,3.46,3.46,0,0,1,.82,1.84c-0.17,1.23-.17,1.23-0.85,1.72-0.25.18-.24,0.27-0.11,0.59,0,0,1.83,4.28,3.5,3.51,0.54-.25.27-1.14,0.14-1.56a37.76,37.76,0,0,1,3.69,4,1.31,1.31,0,0,0,1,.87,3.35,3.35,0,0,0-.15-1.88c-0.67-1.24-.51-1.38-0.18-1.69,0-.3,0-0.41-0.89-1-0.6-.4-0.6-0.4-1.42-1.71-0.31-.5.2-1.13-0.26-1.61a12.88,12.88,0,0,1-1.24-1.32l-0.07-.15,0.06-.09a6.48,6.48,0,0,1,2,1.44h-0.12c1.16,2.58,1.16,2.58,2.25,3.6s2.41,0.75,3.37,1.63a2.17,2.17,0,0,1-.46-0.17l-0.09.06c0.06,0.11.14,0.22,0.21,0.32a11.36,11.36,0,0,0-1.67-.48,19.42,19.42,0,0,1,2,2.51c-0.62,0-.67-0.93-1.34-0.88l-0.07.1s0.76,1.39.84,1.49a2.53,2.53,0,0,1,.58,1.07,1.21,1.21,0,0,0-.46,0c-0.05.12-.07,0.25-0.12,0.37l0.07,0.09h0c-1.76-.12-1.76-0.12-1.77,0l-0.24.15a4.46,4.46,0,0,0-1.31-.44l0.85,0.15a1.75,1.75,0,0,0-1.21-.36c-0.23,0-.29,0-0.94-0.74a3.45,3.45,0,0,1-1-2,2.41,2.41,0,0,0-.74-1.52s-1,0-.8.44a20.79,20.79,0,0,0,2.07,3.2,2,2,0,0,1,.36.47,0.42,0.42,0,0,1-.3.1l-0.59.1-0.17.24c-0.93,0-.93,0-1.19.22a9.38,9.38,0,0,0,.45,1.6l-0.15.27a2.24,2.24,0,0,0-1.22.15,6.46,6.46,0,0,0,.34.86,2.82,2.82,0,0,1-.66.32,1.77,1.77,0,0,1-.14.63,2,2,0,0,1-1.43-.44,6,6,0,0,0,.36.55l-0.09.29a4.54,4.54,0,0,1-.62.21,1.48,1.48,0,0,0-1.14-.3l-0.12.27,0.59,0.52-0.24.17a4.8,4.8,0,0,1,3.53,5.44c-2-.14-3.85-0.73-5.8-0.93a3.24,3.24,0,0,0,.38.52c0,0.05.21,5.28,0.89,5.48-0.18,1.61-.18,1.61-0.21,1.76a6.5,6.5,0,0,1,2.23,0c0.22,0.92.22,0.92,0.24,0.94l3.19-1.06a1.24,1.24,0,0,0,.63-2c0.51-2.1.53-2.11,1.85-2.63,0-1.69,0-1.69.16-1.81,0.61-.51,1.08.3,1.65,0.31,0.52-.92,1-1.52,1.76-0.82,0,0,4.5,5.15,4.94,6.59,0.33,1.08.18,1.1-1.7,1.36a9.56,9.56,0,0,0,1.52,1.62,11.63,11.63,0,0,0-.06-1.51l0.28,0c0.24-.35.33-0.77,0.55-1.13a3.41,3.41,0,0,1-.27-1.33l0.28-.07,0.38,0.52c-0.09-.46-0.09-0.46-1.6-2.27l0.07-.29c-0.71-.32-1.27-0.56-3.16-4.43a1,1,0,0,1,.43-0.36l4.28,5s0,0,1.29,3.69l1.36,3.11a5,5,0,0,0,0-.6,11,11,0,0,0-.43-2.13c-0.46-2.31-.46-2.31-0.24-2.48a2.22,2.22,0,0,1,1.46,1.28,3.69,3.69,0,0,0,.25-0.55l0.3,0c0.28-2.1-1.22-3.92-1-6a0.83,0.83,0,0,1,.54,0l-0.12.26a2.17,2.17,0,0,0,.68.58,1.6,1.6,0,0,1,0,.94,11.59,11.59,0,0,1,.64,1c1-.59-0.5-1.62-0.2-2.48,0.45-.1.53,0.05,0.66,0.4l-0.15.27a3.07,3.07,0,0,1,.39,1.16l-0.17.24c0.73,1.8,2.38,3.2,2.32,5.35l-0.25.14c-0.87-.59-0.83-2.52-2.25-2.15a1,1,0,0,1-.21.52L163,119.9a1.07,1.07,0,0,0,.27.48,4.25,4.25,0,0,1-1.12.28,3.9,3.9,0,0,0,0,.65l0.27,0.08c0.14,1.08.4,3.08,1.73,4.19l0.21-.21v-0.29a10.2,10.2,0,0,0,1.07,1.27,2.57,2.57,0,0,0,.13-0.58,1.55,1.55,0,0,0,.48.32c0.22,4.07.25,4.7-.19,5.8a0.79,0.79,0,0,1-.87-0.75,0.82,0.82,0,0,0-.5.21c-1.95-.14-1.77-3-3.8-3-0.38.68-.08,1.46-0.34,2.15l-0.28.11c-0.42-.31-4.89-4.37-5.21-4.9a0.73,0.73,0,0,1,.14-0.63c0.24-.39.24-0.39,0.06-2.79a8.72,8.72,0,0,0-.88-0.53c-0.39.3-.39,0.3-2-0.08a2.68,2.68,0,0,0-.4.49c-2.12-.83-3.84,1.5-5.95.77l-0.31,0c-0.6.12-.8,0.16-1.45-0.61l-0.12-.08a2.41,2.41,0,0,0-.26.24c-0.4.49-.1,1.17-0.48,1.66s-1.39.6-1.84,1.26a1.66,1.66,0,0,0-.08.78c-0.13,2.56-.13,2.56-0.82,2.9a7.6,7.6,0,0,0-1.82,1.34c-0.38.62-3.21,5.52-3.21,5.53-0.12,1.31.75,2.42,0.77,3.7,0,1.08-1.52,1.59-1,2.83,0.73,1.87,1.74,3.6,2.6,5.4,0.36,0.76,3.08,3.35,3.6,3.31,2.56-.24,5-1.2,7.65-0.92a0.55,0.55,0,0,1,.25.13c0.47,0.4.13,1.11,0.6,1.51a3.55,3.55,0,0,0,1.55.36,1.91,1.91,0,0,1-.08,2c4.41,0.81,7.18,1.56,9.19,2.53a37.66,37.66,0,0,0-9.19-2.53c-1.16,2.73-1.16,2.73-1,3.51,0.28,1.23.66,2.91-.91,6.61-0.72,1.7-2.11,3-3.07,4.5s-1,3.18-1.81,4.64c-3.2,5.69-3.29,5.79-3.8,6.32a3.63,3.63,0,0,0-.9,1.38c1.64,0.51,3.57-.81,4.2-1.24l2.54-1.79,3.21-2.56c0.72-.76,1.16-1.74,1.93-2.46s2.07-1.22,2.95-2.05a25.25,25.25,0,0,0,4.24-6.47c0.81-2,3.58-5,4.4-5.88a24.18,24.18,0,0,0,3.45-6.66,1.21,1.21,0,0,0-.91,0c-0.13-.18-0.13-0.18.14-2.53a19.39,19.39,0,0,0-.11-2.6c0-2.25.39-4.49,0.19-6.74l-0.6-7.1a2.49,2.49,0,0,1,.29,1.25,1.16,1.16,0,0,0,.32-0.57c1.46,5.36-.09,10.73.08,16.1a1,1,0,0,1,.85-0.22c1.55-3.35,1.55-3.35,1.63-3.78l0,0.32c0-.18.08-0.41,0.11-0.59l0-.2,0.17-1.24h0c0.07-.57.16-1.28,0.29-3.2,0,0.1,0,.2,0,0.29C169.2,139.61,169.31,137.52,169.3,135.92Zm-0.36,6.21c-0.11-.24-0.11-0.24,0-2.26-0.06.64-.06,0.64-0.09,0.92-0.15-4.37-.09-4.77,0-5.32a25.52,25.52,0,0,1,.32,5.47A5.78,5.78,0,0,1,168.94,142.14Z" transform="translate(-56.71 -78.21)"/><path class="cls-4" d="M167.67,123l0.06,0.24,0.29,1.3,0-.06c0.1,0.77.26,1.54,0.41,2.3a38,38,0,0,0-1.27-5.83l-0.34-1c0.68,2.34.71,2.43,1,3.67Z" transform="translate(-56.71 -78.21)"/><path class="cls-4" d="M166.63,119.36l0.09,0.22c-0.09-.28-0.2-0.55-0.26-0.84l0.09,0.28L165.85,117v0a1.41,1.41,0,0,0-.13-0.31c0.27,0.81.61,1.83,1.07,3.28Z" transform="translate(-56.71 -78.21)"/><path class="cls-4" d="M168.82,129.34c-0.09-.84-0.25-1.67-0.41-2.5l0.35,2.32Z" transform="translate(-56.71 -78.21)"/><path class="cls-4" d="M135.57,101.93l0,0a6.06,6.06,0,0,0-.38,1.25,0.7,0.7,0,0,0,.07.62,1.79,1.79,0,0,0,1.69-.28,5.56,5.56,0,0,1,.48-0.31A1.2,1.2,0,0,0,138,103a1.11,1.11,0,0,0-.1-0.83,2,2,0,0,0-.27-0.5,0.47,0.47,0,0,1-.06-0.58,0.75,0.75,0,0,0,.06-0.52,0.85,0.85,0,0,0-.37-0.47L137,100c-0.2-.1-0.42-0.14-0.62-0.23a0.62,0.62,0,0,1-.22-0.15,0,0,0,0,0,0,0c-0.05,0-1.37.34-.54,0.8a0.38,0.38,0,0,0,.2.06,0.49,0.49,0,0,1-.12.07,2.39,2.39,0,0,0-.8.52,0.54,0.54,0,0,0-.15.48,0.52,0.52,0,0,0,.29.31A2.5,2.5,0,0,0,135.57,101.93Z" transform="translate(-56.71 -78.21)"/><path class="cls-4" d="M81,86.51h0c-0.13.07-1.17,0.67-1.23,0.74A4.51,4.51,0,0,0,81,86.51Z" transform="translate(-56.71 -78.21)"/><path class="cls-4" d="M163.26,126.66h0a0.12,0.12,0,0,0,0,0l-0.5-.65a0.46,0.46,0,0,0-.22-0.14,4.08,4.08,0,0,1-.49-0.09l-0.31-.11c-0.13,0-.17.11-0.09,0.25A2.61,2.61,0,0,0,163.26,126.66Z" transform="translate(-56.71 -78.21)"/><path class="cls-4" d="M152.69,118.82a0.64,0.64,0,0,1,.36.26c0,0.18,0,.36,0,0.54a0.24,0.24,0,0,0,.19.18,0.77,0.77,0,0,0,.74-0.65,1.28,1.28,0,0,0,0-.18c0-.2-0.11-0.4-0.14-0.6s0-.44,0-0.66-0.17-.38-0.29-0.4a1.18,1.18,0,0,0-.84.5A1.41,1.41,0,0,0,152.69,118.82Z" transform="translate(-56.71 -78.21)"/><path class="cls-4" d="M149.66,118.73s0.25-.28.25-0.29-0.15-.18-0.45-0.22-0.85,0-.65.27a1.36,1.36,0,0,0,.72.3A0.19,0.19,0,0,0,149.66,118.73Z" transform="translate(-56.71 -78.21)"/><path class="cls-4" d="M152.68,116a0.19,0.19,0,0,0-.08.19,0.45,0.45,0,0,0,.09.17s0.47,0.56.51,0.57a3.17,3.17,0,0,0-.08-1.32,2.76,2.76,0,0,0-.24-0.73h0a0.14,0.14,0,0,0,0,.07v0a3.51,3.51,0,0,0,0,.62A0.44,0.44,0,0,1,152.68,116Z" transform="translate(-56.71 -78.21)"/><path class="cls-4" d="M165.21,128.15a1.1,1.1,0,0,0,.3,0,4.31,4.31,0,0,0,.1-0.68s0,0,0,0,0-.07,0-0.08-0.15.05-.23,0.05a0.35,0.35,0,0,1-.17-0.06,1.63,1.63,0,0,0-.2-0.16,0.08,0.08,0,0,0-.1,0,1,1,0,0,0,.19.8A0.3,0.3,0,0,0,165.21,128.15Z" transform="translate(-56.71 -78.21)"/><path class="cls-4" d="M75.14,90.9l0,0,0.07,0c0.33-.23.62-0.52,1-0.75,0.6-.42,1.25-0.77,1.84-1.2a0.85,0.85,0,0,0,.31-0.43l0,0a2.12,2.12,0,0,0-.54.29A0.33,0.33,0,0,0,78,88.53h0l-0.07,0c-0.74.31-.74,0.31-4,3a2.31,2.31,0,0,0-.74.91h0A11.47,11.47,0,0,0,75.14,90.9Z" transform="translate(-56.71 -78.21)"/><path class="cls-4" d="M79.71,87.81a2.16,2.16,0,0,0,.59-0.28c1-.57,1.52-0.79,1.53-0.79a9.13,9.13,0,0,0,1-.37c0.25-.13,1.18-0.78,1.19-0.79a0.58,0.58,0,0,0,.21-0.18,0.6,0.6,0,0,0-.28.08c-0.29.16-.53,0.39-0.82,0.55,0.35-.35.77-0.63,1.11-1h0A5.8,5.8,0,0,0,83,85.8a1.22,1.22,0,0,1-1.08.63l0,0,0.07-.08,0,0c0.12-.13.53-0.21,0.36-0.4,0,0-2.41,1.16-2.43,1.49a11.2,11.2,0,0,0,1.15-.63,1.69,1.69,0,0,1-.49.38A0.9,0.9,0,0,0,80.88,87a3.23,3.23,0,0,1,.5-0.22,15,15,0,0,1-1.59.84C79.62,87.7,79.62,87.8,79.71,87.81Z" transform="translate(-56.71 -78.21)"/><path class="cls-4" d="M73.07,93.72a2.19,2.19,0,0,0,.47-0.1l0,0a4.1,4.1,0,0,1-.37.51,9.5,9.5,0,0,0,2.71-1.44,2.22,2.22,0,0,1,.58-0.39l0,0a1,1,0,0,0-.08.17,3.32,3.32,0,0,0,.69.21,1.85,1.85,0,0,0,1.13-.82l0,0a1.22,1.22,0,0,0-.59.27,1.36,1.36,0,0,1,1-.59,0.27,0.27,0,0,0,.21,0,0.69,0.69,0,0,0,.25-0.5,0.5,0.5,0,0,1-.27-0.7,16,16,0,0,0,1.35-1.81A1.09,1.09,0,0,0,80,88.44l0-.06h0a11.83,11.83,0,0,1-1.63,1.54,0.85,0.85,0,0,1,.3-0.56l-0.05,0a5.69,5.69,0,0,1-.76.36,3.55,3.55,0,0,0,.28-0.34l0,0c-0.37.11-.65,0.4-1,0.54a8.67,8.67,0,0,1,.84-0.71c-0.22,0-3.16,1.92-3.09,2.27L75,91.49a0.84,0.84,0,0,1-.41.31C74,92.15,74,92.22,74,92.3a0.18,0.18,0,0,0,.11,0C74.39,92.25,74.66,92,75,92s0.46,0,.69,0a3.81,3.81,0,0,1-1.19.55C72.95,93,72.8,93.65,73.07,93.72Z" transform="translate(-56.71 -78.21)"/><path class="cls-4" d="M86.49,96.5c0-.13-0.08-0.12-0.18-0.11a1.37,1.37,0,0,0-.56.22,0.46,0.46,0,0,0-.05.53A1.17,1.17,0,0,0,86.49,96.5Z" transform="translate(-56.71 -78.21)"/><path class="cls-4" d="M85.74,95.43a0.22,0.22,0,0,0,.1-0.09A0.34,0.34,0,0,0,85.76,95c-0.1-.09-0.23-0.14-0.32-0.24A4.83,4.83,0,0,0,85,94.23l-0.1-.07c-0.18-.11-0.41-0.09-0.6-0.21s-0.12-.24-0.24-0.31H84a5.77,5.77,0,0,0-.76.92L83,94.92l-0.62,1c0.37,0,.37,0,0.4.22s0,0.24.07,0.23a1.4,1.4,0,0,0,.35-0.26,2.72,2.72,0,0,1,1.35-.72A4.8,4.8,0,0,0,85.74,95.43Z" transform="translate(-56.71 -78.21)"/><path class="cls-4" d="M84.71,96.12a4,4,0,0,0-1.1.39,0.46,0.46,0,0,0-.09.54,2.44,2.44,0,0,0,1.39-.77C85,96.17,85,96.07,84.71,96.12Z" transform="translate(-56.71 -78.21)"/><path class="cls-4" d="M82.6,142.33c-0.31.13-.13,0.62,0.06,0.69s0.94,0.2.93-.14A1,1,0,0,0,82.6,142.33Z" transform="translate(-56.71 -78.21)"/><path class="cls-4" d="M139.35,101.71c-0.06,0,0,0,0,.1l0.39,0A1,1,0,0,0,139.35,101.71Z" transform="translate(-56.71 -78.21)"/><path class="cls-4" d="M101.23,105.88a1.59,1.59,0,0,0,.49-1h-0.07a4.18,4.18,0,0,0-1.17,1.05c-0.51.63-.86,1.37-1.36,2-0.27.34-.64,0.58-0.89,0.93-0.1.14,0,.17,0,0.2a8.19,8.19,0,0,0,1.58.16,11.39,11.39,0,0,1,2.18.33,1.64,1.64,0,0,0,.26.06,0.82,0.82,0,0,1,.74,0,0.84,0.84,0,0,1,.14.51c0,0.16.09,0.18,0.13,0.17a1,1,0,0,0,.57-0.89,3.5,3.5,0,0,0-.92-2.15c-0.25-.27-0.25-0.27-1.14-0.08-0.27.06-.33,0-0.39-0.22a0.72,0.72,0,0,0-.39-0.59c-0.09,0-.09-0.07,0-0.16A2.84,2.84,0,0,1,101.23,105.88Z" transform="translate(-56.71 -78.21)"/><path class="cls-4" d="M136.68,98a3.77,3.77,0,0,0-.07.91,0.89,0.89,0,0,0,.72-0.3,0.43,0.43,0,0,1,.39-0.16c0.43,0.24-.07.71,0.08,1a1.34,1.34,0,0,0,1.1.9,3,3,0,0,1,.92.3,0.94,0.94,0,0,0,0,.33c0.19,0.33.52,0.56,0.69,0.92s-0.35.15-.68,0a1.11,1.11,0,0,0-.53-0.1,9.83,9.83,0,0,1,.78,1.17c0.06,0.27-.19.41-0.55,0.58-0.09,0-.24.11-0.19,0.22a1.13,1.13,0,0,0,1,.21c0.36,0,1.11,0,1.13.21s-0.15.22-.41,0.22a0.5,0.5,0,0,0-.42.15,6.46,6.46,0,0,0-.37.61c-0.2.22-.47,0.36-0.67,0.58v0.07a7.63,7.63,0,0,0,1.74-.18c0.82-.1,1.65,0,2.47-0.16h0l1.41-.48a0.14,0.14,0,0,0,0,0,1.88,1.88,0,0,0-1-.15c-0.15-.43.24-0.81,0.08-1.24-0.29-.76-0.59-0.74-0.83-0.73a1.25,1.25,0,0,1-.92-0.74l0,0a1.29,1.29,0,0,1,.46.08c0.19,0.07.46,0.16,0.44,0.06v0a1,1,0,0,0-.22-0.23,20.54,20.54,0,0,1-2.1-1.37,5.65,5.65,0,0,0-.85-0.88,3,3,0,0,0-1.46-.48h0c0.36-.32.83-1.9-0.13-1.94a3.13,3.13,0,0,0-.5,0c-0.61.08-.72,0.09-0.72-0.06,0-.32.54-0.92,0.09-0.94,0,0-1.2,0-1.38.45a0.29,0.29,0,0,0,0,.14C136.36,97.29,136.62,97.6,136.68,98Z" transform="translate(-56.71 -78.21)"/><path class="cls-4" d="M58,113.53c0.15-.36.24-0.74,0.38-1.1s0.18-.43.26-0.64l0-.08s0.06-.2,0-0.18l0,0a4.72,4.72,0,0,0-.62,2Z" transform="translate(-56.71 -78.21)"/><path class="cls-4" d="M128.89,90a0.26,0.26,0,0,0,0-.07,1.13,1.13,0,0,0-.49-0.44l-0.13,0a8.71,8.71,0,0,1-1.05-.15,1.67,1.67,0,0,0-.71-0.32c-0.33.08-.64,0.22-1,0.3s-0.66.06-1,.16a1.46,1.46,0,0,0-.21.41c-0.17.1-.35-0.09-0.52,0l-0.09.05a1.07,1.07,0,0,1-.12.86,4.4,4.4,0,0,1-.94-0.86,1.64,1.64,0,0,0-1.74-.58,1.77,1.77,0,0,0,.55.4,2,2,0,0,1-.72.59,1.37,1.37,0,0,0,.67,0c0.36-.06,1.49.33,0.86,0.85a1.25,1.25,0,0,0,.93.14c0.32,0.09.32,0.21,0.32,0.49a1,1,0,0,0,.77,0,4.24,4.24,0,0,1,.69,0c0.3,0,.58.15,0.89,0.17H126a5,5,0,0,0,1.09-.21A3.26,3.26,0,0,0,129,90.49c0-.16-0.17-0.27-0.22-0.42S128.79,90,128.89,90Z" transform="translate(-56.71 -78.21)"/><path class="cls-4" d="M83.63,141a3.33,3.33,0,0,0,2.45.35c0-.13-2.65-3.2-2.68-3.22a3.19,3.19,0,0,0-2.64-.45,3.9,3.9,0,0,0-1.46.89,1.86,1.86,0,0,0,1.31-.3,1,1,0,0,1,1.33-.06c0,0.08-.15.19-0.39,0l0,0a1.26,1.26,0,0,0,1.06.63,1,1,0,0,1,1,.83,1.58,1.58,0,0,0,.29.58,0.78,0.78,0,0,1,.2.32C84,140.85,83.75,140.84,83.63,141Z" transform="translate(-56.71 -78.21)"/><path class="cls-4" d="M86.94,143.53c0.21,0.12,0,.52.35,0.55,0.53,0.05.47-.66,0.93-0.71a0.9,0.9,0,0,1,.26,0,20.21,20.21,0,0,0,2.22.18c0.07,0,.11,0,0.12-0.09a3.21,3.21,0,0,1-.12-0.68c0.19-.76-3.68-1.09-3.93-1.05a0.18,0.18,0,0,0-.1,0,0.1,0.1,0,0,0,.06.11,1.09,1.09,0,0,1,.36,1.17,1.81,1.81,0,0,1-.81-0.06,2.56,2.56,0,0,0-.9-0.09,0.16,0.16,0,0,0,0,0C85.88,143.26,86.46,143.25,86.94,143.53Z" transform="translate(-56.71 -78.21)"/><path class="cls-4" d="M94.75,107.53c-0.33.12,0.43,0.49,0.58,0.57,1,0.47,1.35,0,1.35,0C96.8,107.78,95.11,107.47,94.75,107.53Z" transform="translate(-56.71 -78.21)"/><path class="cls-4" d="M157.35,169.85c-1.1,1.42-1.12,1.43-1.84,1.68s-0.77.48-1.66,1.77a3.82,3.82,0,0,1-1,1.11,18.94,18.94,0,0,0-3.18,3.52c0.48,0,.48,0,2.31-1.75,1.49-1.43,2.81-3,4.23-4.52a0.68,0.68,0,0,1-.13.25,0.76,0.76,0,0,0,.19-0.21,14.16,14.16,0,0,0,1.53-2.31l0,0C157.62,169.5,157.62,169.5,157.35,169.85Z" transform="translate(-56.71 -78.21)"/><path class="cls-4" d="M120.25,159.47c-0.08-.41.47-1,0-1.23a3.74,3.74,0,0,0-1.09,0c-1.18-.26-2-1.28-3.09-1.63-1.69-.52-3.43-0.82-5.14-1.25-1-.37-1.08-1.51-1.69-2.17-1-.68-1.82-1.78-2.91-2.41-1.43-.81-3.18-0.54-4.6-1.39-1.12-.68-1.87-1.83-3.07-2.41A2.37,2.37,0,0,0,98,146.8c-5.8-.87-10.39-1.56-10.9,3-1.72-1.22-6.15.71-5.74-2.15a4.94,4.94,0,0,0-.5-3c-1.34-.68-2.71,0-4.07-0.07,0.45-1.48.45-1.48,0.12-2.17a7.92,7.92,0,0,0,.8-2.62c-0.26-.22-2.52-2-3,3.06-0.78-.05-1.28,1-2.17.53a6.19,6.19,0,0,1-3-3.52c-0.3-1,.54-1.76.52-2.7,0-.6-0.82-0.89-0.61-1.57a9.79,9.79,0,0,1,2.29-2.85c0.68-.53,3.34.07,3.36,0.08l0.24-.2a5.24,5.24,0,0,0-.73-0.48l0.06-.29a31.49,31.49,0,0,1,4.76-.66c1.81,1,.7,3.5,2.44,4.5,2-2.16-1.24-4.07-.88-6.24s2.62-2.77,3.88-4.2h0l-0.18-.21,0-.27,0.26-.08,0-.32-0.26-.1,0.42-4.12c0,0.61,0,2.46,0,2.47,0.19-.13.19-0.13,0.37-2.84a3.41,3.41,0,0,1,.48.85c0.37-.64.25-1.47,0.82-2a28.89,28.89,0,0,1,2.62-1.32c0.23-2.13.23-2.13,1.42-3.24,0.2,0,.2,0,3.66-2l-0.12.24a1.84,1.84,0,0,0,.62.13v0.3c-2,1.42-2,1.42-2,1.84,1.36,0,5.53-2.4,4.79-4.29a4.4,4.4,0,0,0-.94,1.61l-1.11-.32a1,1,0,0,0,.53-0.39v0H96.1a1.58,1.58,0,0,1-1-.09,0.45,0.45,0,0,1-.29-0.51c0-.09,0-0.09,0-0.1h0a1,1,0,0,0,0,.78,1.44,1.44,0,0,1-.81-1.14,1.17,1.17,0,0,1-.73-0.48c0.73-.2,1.26-0.34,1.42-1.08-0.37-.37-0.37-0.37-5.6,2.9,3.59-3.74,3.59-3.74,7.28-4.86,0.84,0.57,4.61-1.3,5.19-2.34a1,1,0,0,1,.09-1.13l-0.17-.26-0.91-.19h-0.26a3.72,3.72,0,0,0-1.73.72l-0.11-.25c0.3-.43.45-0.49,1.56-0.92-2.17.19-4.28,0.37-6.61,0.6,2.14-.22,4-0.39,6.62-0.61a0.44,0.44,0,0,0,.18-0.12,1.75,1.75,0,0,0-1.92-.59,0.47,0.47,0,0,1-.38,0,1.85,1.85,0,0,0-.06-0.65c-0.21-.27-0.62-0.21-0.82-0.48-0.09-.12,0-0.22.14-0.45s0.24-.34-0.29-1.28c-1.33-2.37-1.33-2.37-2-1.13a1.81,1.81,0,0,1,0,.59,7.07,7.07,0,0,0-.72.26,1.2,1.2,0,0,1-.53.6c-0.72.22-1.23-.37-1.86-0.51a2.69,2.69,0,0,1,.52-1.79c-0.37-.12-0.76.06-1.12-0.08a0.53,0.53,0,0,1-.25-0.28,1.75,1.75,0,0,0-1-.52,0.73,0.73,0,0,0-.4,0,18.83,18.83,0,0,0-2.53.38c0.15,0.77-.8,1.46-0.16,2.27a3.74,3.74,0,0,0-.64.95c0,0.51.49,0.81,0.51,1.31,0,0,0,2-1.11,2.27-0.25.06-.82,0.24-0.7,0.66a1.4,1.4,0,0,1-.31.27c-0.3,1.15.45,2.59-.86,3.5A5.42,5.42,0,0,0,82,106.17a1.92,1.92,0,0,0,0-1.65l0.32-.26s0-.15,0-0.2L82,104c-0.54-.52-1.19,0-1.77-0.21s-0.89-.76-1.46-1l-0.33-.08a2.93,2.93,0,0,0-1.33.42c-0.16-.13-0.16-0.13-0.35-1.31-0.07-.41-0.07-0.41-1-0.49-0.22-1.26,2.85-3.53,4.16-4.51-0.15-.4-0.59-0.22-0.84-0.42,2.55-.45,2.55-0.45,4-2a2.2,2.2,0,0,1-2-.25c0.95-.34,2.17.25,2.89-0.85a0.61,0.61,0,0,0-.28-0.1,0.8,0.8,0,0,1,1-.26c1.65-.6,1.65-0.6,2.09-1a1.51,1.51,0,0,0,.27-0.31c0.18-.3-0.12-0.62,0-0.92a2.68,2.68,0,0,1,.69-0.46,2.57,2.57,0,0,0,.2-0.46s-1.41-1.43-1.87.58C85.12,91,84.5,93,83.46,92c0.09-.62,1.34-1,0.76-1.63a5.14,5.14,0,0,0-1.42,1.35,2.43,2.43,0,0,1,.57-1.22,3.19,3.19,0,0,0-.63,0c1-1.65,1-1.65,1-1.85l-0.16-.11c0.59-.91.59-0.91,3.32-2.52a1.16,1.16,0,0,0-.5,0c-2.19.51-5.15,4.62-5.17,4.66l0.07,0.15c0.23,0,.46-0.05.7-0.07l0,0.14a2.4,2.4,0,0,0-.79.5v0.12h0l0.14,0c-0.47.8-1.49,1.07-1.87,2-0.36-.37-0.36-0.37.31-1.08-0.38-.1-0.38-0.1-1.63.88a3.38,3.38,0,0,1-2,.25c-0.1-.15-0.08-0.34-0.19-0.48-1.24.32-1.61,1-2.35,2.48a3.67,3.67,0,0,1,.14-1c-0.67.11-1.22,0.66-2,.55a2.1,2.1,0,0,0,.92-0.91l-0.13-.07a0.84,0.84,0,0,1-.67.05A1.52,1.52,0,0,0,71.77,94a2.37,2.37,0,0,0-.8.54,2.19,2.19,0,0,1,.19-0.29,3.18,3.18,0,0,0-.48.42,3.34,3.34,0,0,1,.63-0.9c-0.81.75-.81,0.75-2.29,2h0c0.47-.45,1-0.85,1.45-1.29a24.68,24.68,0,0,0-2.39,2.12,2,2,0,0,1,.17-0.25l-2.73,3.07a56.19,56.19,0,0,0-5.17,7.29v0l0.08-.12a14.53,14.53,0,0,0-1.18,3.36l-0.23.7,0.16,0.26a18.52,18.52,0,0,0-.69,2.85,2.27,2.27,0,0,0,.14,1.21,1,1,0,0,0-.26,0,0.16,0.16,0,0,1-.11,0,0.29,0.29,0,0,1-.06-0.16,0.62,0.62,0,0,0-.14-0.29h0a2.67,2.67,0,0,0,0,1.13,0.39,0.39,0,0,0,.42.36,0.35,0.35,0,0,0,.2-0.21,0.78,0.78,0,0,0,0-.26,1.82,1.82,0,0,0,0-.2,0.16,0.16,0,0,1,0,0,3.2,3.2,0,0,1,.27,1.25l-0.48-.26c-1.76,2.2-2.38,13.22-1.21,15.28,0.15,0,.15,0,2.71,5.26l-0.61,0c0.31,0.65,2.57,3.56,2.59,3.59,0.21-.3.42-0.61-0.62-2.08-0.47-.67-1-1.43-1.91-5.09a2.85,2.85,0,0,1,1.4,2,4.76,4.76,0,0,0,.45,1.38c0.46,0.74,1,1.4,1.52,2.11,0.64,0.93,1.72,1.45,2.25,2.47,0.43,0.82.22,1.92,1.11,2.54a2.3,2.3,0,0,0,.45.21,8.51,8.51,0,0,0,.83.34c0.91,0.23,1.84.38,2.76,0.6s1.93-.31,2.85.21c2.1,1.2,2.1,1.2,2.84,1.28l0.37,0c3.3,0.46,4.67,4.55,8.29,4.42,1.61-2.69,2.6.54,3,2,0.11,0.48.11,0.48-.79,2.46,0,0-.89,3.61-0.51,4.28,0.06,0.11.14,0.26,0.21,0.36a80.13,80.13,0,0,0,6.1,6.61c1.19,1,2.8,1.26,4.05,2.16a6,6,0,0,1,2,3.8c0,0.08,1.88,8.45,5.13,13,4.12,5.8,8.11,5.16,8.14,5.15-3.84-2-3.84-2-3.48-3.6-0.53-.57-0.53-0.57-1.54-3.34a2.19,2.19,0,0,1,.88,0,5.86,5.86,0,0,0-.88-1.29c0.67-.6.67-0.6,0.62-1.08l0.17-.1c1.19,0.36,1.59-.62,1.28-1.07l-0.35-.49c2.71-.07,3.86-6.63,3.87-6.7a3.58,3.58,0,0,1,1.83-1.51c1-.4,1-1.53,1.65-2.15a0.92,0.92,0,0,1,.81-0.25c0.4,0.05.43,0.05,0.48-.32,0.11-.82,0-1.65.08-2.47a2.31,2.31,0,0,1,.06-1.38c0.35-.52.49-0.71,0.24-1.06a0.76,0.76,0,0,1-.11-0.23,5.63,5.63,0,0,0,3.08-3.31,0.37,0.37,0,0,0,0-.09C120.52,159.94,120.3,159.74,120.25,159.47ZM63.39,108.23c0.8-.26,1.65-0.51,2.52-0.75C65,107.72,64.19,108,63.39,108.23ZM89.1,155l3.16-.38Zm23,14.36c0-.4-0.18-1.7-0.38-4,0.12,1.35.25,2.69,0.4,4.1C112.09,169.42,112.08,169.39,112.08,169.36ZM111,156.81l0,0.22Z" transform="translate(-56.71 -78.21)"/><path class="cls-4" d="M92.07,143.82c-0.31.21,0.09,0.61,0.47,0.68a2.83,2.83,0,0,0,1.17-.16s0-.15-0.69-0.35A1.59,1.59,0,0,0,92.07,143.82Z" transform="translate(-56.71 -78.21)"/></g></g></g></g></svg>